<svg xmlns="http://www.w3.org/2000/svg" viewBox="0 0 1024 1024">
  <defs>
    <linearGradient id="bg" x1="0" y1="0" x2="1" y2="1">
      <stop offset="0" stop-color="#132238"/>
      <stop offset="1" stop-color="#07111f"/>
    </linearGradient>
    <linearGradient id="box" x1="0" y1="0" x2="0" y2="1">
      <stop offset="0" stop-color="#2dd4bf"/>
      <stop offset="1" stop-color="#0f766e"/>
    </linearGradient>
    <filter id="shadow" x="-30%" y="-30%" width="160%" height="160%">
      <feDropShadow dx="0" dy="28" stdDeviation="28" flood-color="#020617" flood-opacity=".38"/>
    </filter>
  </defs>
  <rect x="64" y="64" width="896" height="896" rx="206" fill="url(#bg)"/>
  <rect x="64.5" y="64.5" width="895" height="895" rx="205.5" fill="none" stroke="#ffffff" stroke-opacity=".08"/>
  <g transform="translate(192 192) scale(20)" filter="url(#shadow)">
    <path d="M5.6 12 1.2 5.8 4.9 2.9 9.9 9.9Z" fill="#2dd4bf"/>
    <path d="M26.4 12 30.8 5.8 27.1 2.9 22.1 9.9Z" fill="#2dd4bf"/>
    <rect x="5" y="11.4" width="22" height="16.2" rx="3" fill="url(#box)"/>
    <rect x="8" y="11.4" width="16" height="6.6" rx="1.8" fill="#042f2e"/>
    <rect x="10.6" y="12.7" width="4" height="4" rx="1.3" fill="#ccfbf1"/>
    <rect x="17.4" y="12.7" width="4" height="4" rx="1.3" fill="#ccfbf1"/>
    <path d="M10.6 20.3 13.7 22.8 10.6 25.3" stroke="#042f2e" stroke-width="2" fill="none" stroke-linecap="round" stroke-linejoin="round"/>
    <rect x="16.4" y="23.9" width="4.6" height="2" rx="1" fill="#042f2e"/>
  </g>
</svg>
